<svg width="118" height="30" viewBox="0 0 118 30" fill="none" xmlns="http://www.w3.org/2000/svg">
<g clip-path="url(#clip0_6_51)">
<path d="M30.003 13.3516V15.8242C30.003 20.1374 28.6474 23.5852 25.9362 26.1676C23.2527 28.7225 19.836 30 15.6862 30C11.1768 30 7.42813 28.5577 4.44028 25.6731C1.48009 22.7885 0 19.2445 0 15.0412C0 10.8379 1.46626 7.28022 4.39878 4.36813C7.35897 1.45604 10.9693 0 15.2297 0C17.9409 0 20.417 0.604396 22.6579 1.81319C24.9264 3.02198 26.6832 4.61538 27.9281 6.59341L22.2844 9.80769C21.6481 8.81868 20.6936 8.00824 19.421 7.37637C18.1761 6.74451 16.7652 6.42857 15.1882 6.42857C12.726 6.42857 10.6788 7.23901 9.04655 8.85989C7.44196 10.4808 6.63967 12.5549 6.63967 15.0824C6.63967 17.5824 7.46963 19.6291 9.12954 21.2225C10.7895 22.7885 13.0027 23.5714 15.7692 23.5714C19.6147 23.5714 22.0907 22.0879 23.1973 19.1209H15.4372V13.3516H30.003Z" fill="white"/>
<path d="M44.7432 0.576904C47.5927 0.576904 49.9996 1.53844 51.9638 3.46152C53.9281 5.3846 54.9102 7.71976 54.9102 10.467C54.9102 13.2143 53.9281 15.5495 51.9638 17.4725C49.9996 19.3956 47.5927 20.3571 44.7432 20.3571H40.3859V29.4231H33.7462V0.576904H44.7432ZM44.7432 14.1758C45.7668 14.1758 46.6106 13.8187 47.2746 13.1044C47.9385 12.3901 48.2705 11.511 48.2705 10.467C48.2705 9.42306 47.9385 8.54394 47.2746 7.82965C46.6106 7.11536 45.7668 6.75822 44.7432 6.75822H40.3859V14.1758H44.7432Z" fill="white"/>
<path d="M77.3223 0.576904V6.92306H69.8527V29.4231H63.213V6.92306H55.7434V0.576904H77.3223Z" fill="white"/>
<path d="M78.162 20.0687V14.1346H93.9312V20.0687H78.162Z" fill="white"/>
<path d="M96.5266 22.3977V18.0384L107.457 0.818181H111.216V6.85227H108.991L102.1 17.7571V17.9616H117.633V22.3977H96.5266ZM109.093 27V21.0682L109.196 19.1378V0.818181H114.386V27H109.093Z" fill="white"/>
</g>
<defs>
<clipPath id="clip0_6_51">
<rect width="118" height="30" fill="white"/>
</clipPath>
</defs>
</svg>
